<svg width="110" height="30" viewBox="0 0 110 30" fill="none" xmlns="http://www.w3.org/2000/svg">
<path fill-rule="evenodd" clip-rule="evenodd" d="M15 30C23.2843 30 30 23.2843 30 15C30 6.71573 23.2843 0 15 0C6.71573 0 0 6.71573 0 15C0 23.2843 6.71573 30 15 30ZM19.6235 22.7956C20.8745 21.6465 21.5 20.1809 21.5 18.3991C21.5 16.6818 20.8229 15.2808 19.4688 14.1962C20.4489 13.5377 20.939 12.4918 20.939 11.0586C20.939 9.44461 20.3651 8.11468 19.2173 7.06881C18.0694 6.02294 16.6637 5.5 15 5.5C13.3234 5.5 11.9112 6.02294 10.7634 7.06881C9.62847 8.11468 9.06101 9.44461 9.06101 11.0586C9.06101 12.3498 9.54464 13.3957 10.5119 14.1962C9.17064 15.3196 8.5 16.7205 8.5 18.3991C8.5 20.168 9.1255 21.6271 10.3765 22.7762C11.6275 23.9254 13.1687 24.5 15 24.5C16.8314 24.5 18.3725 23.9319 19.6235 22.7956Z" fill="#2BB7F6"/>
<path d="M16.7414 11.6335C16.8464 11.4128 16.8988 11.1764 16.8988 10.9242C16.8988 10.6615 16.8464 10.4145 16.7414 10.1833C16.6469 9.94165 16.5157 9.73673 16.3478 9.5686C16.1799 9.40046 15.9804 9.26911 15.7495 9.17453C15.5291 9.06945 15.2877 9.01691 15.0253 9.01691C14.7734 9.01691 14.532 9.06945 14.3011 9.17453C14.0806 9.26911 13.8865 9.40046 13.7185 9.5686C13.5506 9.73673 13.4141 9.94165 13.3092 10.1833C13.2147 10.4145 13.1675 10.6615 13.1675 10.9242C13.1675 11.1764 13.2147 11.4128 13.3092 11.6335C13.4141 11.8542 13.5506 12.0486 13.7185 12.2167C13.8865 12.3849 14.0806 12.5215 14.3011 12.6265C14.532 12.7211 14.7734 12.7684 15.0253 12.7684C15.2877 12.7684 15.5291 12.7211 15.7495 12.6265C15.9804 12.5215 16.1799 12.3849 16.3478 12.2167C16.5157 12.0486 16.6469 11.8542 16.7414 11.6335Z" fill="#191919"/>
<path d="M14.7849 21.5941C14.7309 21.8103 14.6634 22.0129 14.5824 22.2021C14.5824 22.2156 14.6162 22.2426 14.6836 22.2832C14.7106 22.3102 14.7444 22.3305 14.7849 22.344C14.8793 22.2764 15.048 22.1278 15.291 21.8981C15.5339 21.6819 15.7769 21.3981 16.0198 21.0468C16.2762 20.6955 16.4922 20.2834 16.6676 19.8104C16.8566 19.351 16.9308 18.851 16.8903 18.3105C16.8633 17.7971 16.6744 17.3579 16.3235 16.9931C15.9726 16.6282 15.5407 16.4458 15.0278 16.4458C14.7714 16.4458 14.5284 16.4931 14.299 16.5877C14.0695 16.6823 13.8671 16.8174 13.6916 16.9931C13.5297 17.1552 13.4015 17.3512 13.307 17.5809C13.2125 17.8106 13.1653 18.0538 13.1653 18.3105C13.1653 18.7294 13.2868 19.0875 13.5297 19.3848C13.7861 19.6685 14.0898 19.905 14.4407 20.0942C14.6162 20.1888 14.7376 20.3104 14.8051 20.459C14.8726 20.6212 14.8996 20.7968 14.8861 20.986C14.8861 21.1887 14.8523 21.3914 14.7849 21.5941Z" fill="#191919"/>
<path d="M47.128 23.288C45.384 23.288 43.808 22.912 42.4 22.16C41.008 21.408 39.912 20.376 39.112 19.064C38.328 17.736 37.936 16.248 37.936 14.6C37.936 12.952 38.328 11.472 39.112 10.16C39.912 8.832 41.008 7.792 42.4 7.04C43.808 6.288 45.384 5.912 47.128 5.912C48.872 5.912 50.44 6.288 51.832 7.04C53.224 7.792 54.32 8.832 55.12 10.16C55.92 11.472 56.32 12.952 56.32 14.6C56.32 16.248 55.92 17.736 55.12 19.064C54.32 20.376 53.224 21.408 51.832 22.16C50.44 22.912 48.872 23.288 47.128 23.288ZM47.128 19.976C48.12 19.976 49.016 19.752 49.816 19.304C50.616 18.84 51.24 18.2 51.688 17.384C52.152 16.568 52.384 15.64 52.384 14.6C52.384 13.56 52.152 12.632 51.688 11.816C51.24 11 50.616 10.368 49.816 9.92C49.016 9.456 48.12 9.224 47.128 9.224C46.136 9.224 45.24 9.456 44.44 9.92C43.64 10.368 43.008 11 42.544 11.816C42.096 12.632 41.872 13.56 41.872 14.6C41.872 15.64 42.096 16.568 42.544 17.384C43.008 18.2 43.64 18.84 44.44 19.304C45.24 19.752 46.136 19.976 47.128 19.976ZM63.322 23.192C62.25 23.192 61.202 23.064 60.178 22.808C59.154 22.536 58.338 22.2 57.73 21.8L58.978 19.112C59.554 19.48 60.25 19.784 61.066 20.024C61.882 20.248 62.682 20.36 63.466 20.36C65.05 20.36 65.842 19.968 65.842 19.184C65.842 18.816 65.626 18.552 65.194 18.392C64.762 18.232 64.098 18.096 63.202 17.984C62.146 17.824 61.274 17.64 60.586 17.432C59.898 17.224 59.298 16.856 58.786 16.328C58.29 15.8 58.042 15.048 58.042 14.072C58.042 13.256 58.274 12.536 58.738 11.912C59.218 11.272 59.906 10.776 60.802 10.424C61.714 10.072 62.786 9.896 64.018 9.896C64.93 9.896 65.834 10 66.73 10.208C67.642 10.4 68.394 10.672 68.986 11.024L67.738 13.688C66.602 13.048 65.362 12.728 64.018 12.728C63.218 12.728 62.618 12.84 62.218 13.064C61.818 13.288 61.618 13.576 61.618 13.928C61.618 14.328 61.834 14.608 62.266 14.768C62.698 14.928 63.386 15.08 64.33 15.224C65.386 15.4 66.25 15.592 66.922 15.8C67.594 15.992 68.178 16.352 68.674 16.88C69.17 17.408 69.418 18.144 69.418 19.088C69.418 19.888 69.178 20.6 68.698 21.224C68.218 21.848 67.514 22.336 66.586 22.688C65.674 23.024 64.586 23.192 63.322 23.192ZM76.936 9.896C78.936 9.896 80.472 10.376 81.544 11.336C82.616 12.28 83.152 13.712 83.152 15.632V23H79.648V21.392C78.944 22.592 77.632 23.192 75.712 23.192C74.72 23.192 73.856 23.024 73.12 22.688C72.4 22.352 71.848 21.888 71.464 21.296C71.08 20.704 70.888 20.032 70.888 19.28C70.888 18.08 71.336 17.136 72.232 16.448C73.144 15.76 74.544 15.416 76.432 15.416H79.408C79.408 14.6 79.16 13.976 78.664 13.544C78.168 13.096 77.424 12.872 76.432 12.872C75.744 12.872 75.064 12.984 74.392 13.208C73.736 13.416 73.176 13.704 72.712 14.072L71.368 11.456C72.072 10.96 72.912 10.576 73.888 10.304C74.88 10.032 75.896 9.896 76.936 9.896ZM76.648 20.672C77.288 20.672 77.856 20.528 78.352 20.24C78.848 19.936 79.2 19.496 79.408 18.92V17.6H76.84C75.304 17.6 74.536 18.104 74.536 19.112C74.536 19.592 74.72 19.976 75.088 20.264C75.472 20.536 75.992 20.672 76.648 20.672ZM103.077 9.896C104.693 9.896 105.973 10.376 106.917 11.336C107.877 12.28 108.357 13.704 108.357 15.608V23H104.613V16.184C104.613 15.16 104.397 14.4 103.965 13.904C103.549 13.392 102.949 13.136 102.165 13.136C101.285 13.136 100.589 13.424 100.077 14C99.5645 14.56 99.3085 15.4 99.3085 16.52V23H95.5645V16.184C95.5645 14.152 94.7485 13.136 93.1165 13.136C92.2525 13.136 91.5645 13.424 91.0525 14C90.5405 14.56 90.2845 15.4 90.2845 16.52V23H86.5405V10.088H90.1165V11.576C90.5965 11.032 91.1805 10.616 91.8685 10.328C92.5725 10.04 93.3405 9.896 94.1725 9.896C95.0845 9.896 95.9085 10.08 96.6445 10.448C97.3805 10.8 97.9725 11.32 98.4205 12.008C98.9485 11.336 99.6125 10.816 100.413 10.448C101.229 10.08 102.117 9.896 103.077 9.896Z" fill="#191919"/>
</svg>
